<?xml version="1.0" encoding="utf-8"?>
<svg viewBox="145.032 411.081 516.968 283.311" xmlns="http://www.w3.org/2000/svg">
  <g transform="matrix(0.1, 0, 0, -0.1, 0, 1200)" fill="#000000" stroke="none">
    <path d="M3773 7875 c-616 -112 -1547 -874 -2038 -1670 -137 -221 -246 -477 -275 -648 -19 -108 -9 -251 21 -317 148 -321 701 -214 1351 260 123 90 123 90 137 68 35 -56 140 -146 201 -175 98 -46 160 -58 300 -58 142 1 253 20 371 66 87 33 115 59 134 120 8 24 14 36 14 26 2 -32 49 -114 83 -142 133 -113 351 -95 524 44 57 45 84 91 84 144 0 34 -20 67 -41 67 -6 0 -38 -27 -72 -60 -86 -84 -171 -125 -259 -125 -52 0 -73 5 -94 21 -15 11 -29 25 -31 31 -2 6 24 21 59 32 142 47 216 114 237 212 22 99 -10 176 -89 217 -87 45 -214 15 -301 -71 -66 -65 -101 -150 -107 -259 -3 -61 -8 -85 -14 -74 -13 24 -50 20 -152 -18 -323 -121 -581 -74 -668 122 l-20 43 109 102 c59 56 151 147 203 202 175 183 192 200 186 188 -4 -7 -7 -33 -8 -58 -1 -60 21 -85 74 -85 53 0 74 13 100 63 28 54 32 181 7 242 l-17 40 85 120 c345 487 489 937 374 1169 -73 149 -232 204 -468 161z m236 -191 c65 -26 76 -52 75 -179 -1 -99 -5 -121 -38 -220 -67 -200 -179 -409 -338 -631 l-79 -112 -37 9 c-93 22 -232 0 -340 -53 -80 -39 -191 -145 -241 -230 -56 -97 -90 -211 -103 -353 l-13 -127 -44 -37 c-70 -57 -235 -173 -345 -242 -348 -217 -707 -321 -817 -236 -81 62 -61 270 49 529 231 543 857 1238 1450 1610 359 225 676 330 821 272z m-513 -1305 c-27 -39 -321 -351 -349 -371 l-28 -20 7 29 c18 81 29 113 56 166 64 128 182 215 291 217 37 0 38 -1 23 -21z m809 -515 c25 -10 35 -47 24 -88 -14 -51 -70 -94 -156 -120 -19 -6 -23 -4 -23 17 0 50 32 131 65 164 32 32 57 39 90 27z"/>
    <path d="M5044 6672 c-151 -71 -290 -456 -311 -857 -16 -324 89 -504 279 -482 75 9 130 39 209 115 l74 70 0 63 c0 60 -2 64 -23 67 -18 3 -42 -14 -101 -72 -46 -44 -89 -77 -107 -81 -16 -4 -34 -8 -41 -10 -25 -8 -74 18 -88 46 -24 45 -19 63 49 166 179 273 278 536 279 738 1 109 -14 165 -56 212 -41 44 -101 54 -163 25z m73 -152 c28 -55 6 -233 -48 -386 -33 -97 -146 -334 -159 -334 -19 0 17 298 56 460 59 252 110 340 151 260z"/>
    <path d="M5654 6672 c-151 -71 -290 -456 -311 -857 -16 -324 89 -504 279 -482 75 9 130 39 209 115 l74 70 0 63 c0 60 -2 64 -23 67 -18 3 -42 -14 -101 -72 -46 -44 -89 -77 -107 -81 -16 -4 -34 -8 -41 -10 -25 -8 -74 18 -88 46 -24 45 -19 63 49 166 179 273 278 536 279 738 1 109 -14 165 -56 212 -41 44 -101 54 -163 25z m73 -152 c28 -55 6 -233 -48 -386 -33 -97 -146 -334 -159 -334 -19 0 17 298 56 460 59 252 110 340 151 260z"/>
    <path d="M6153 5996 c-84 -27 -155 -95 -201 -193 -24 -51 -27 -70 -27 -163 0 -95 3 -110 27 -156 100 -189 371 -205 584 -35 57 45 84 91 84 144 0 34 -20 67 -41 67 -6 0 -38 -27 -72 -60 -86 -84 -171 -125 -259 -125 -52 0 -73 5 -94 21 -15 11 -29 25 -31 31 -2 6 24 21 59 32 142 47 216 114 237 212 36 168 -94 278 -266 225z m92 -132 c25 -10 35 -47 24 -88 -14 -51 -70 -94 -156 -120 -19 -6 -23 -4 -23 17 0 50 32 131 65 164 32 32 57 39 90 27z"/>
  </g>
</svg>